<?xml version="1.0" standalone="no"?><!DOCTYPE svg PUBLIC "-//W3C//DTD SVG 1.1//EN" "http://www.w3.org/Graphics/SVG/1.1/DTD/svg11.dtd"><svg t="1700650432463" class="icon" viewBox="0 0 1024 1024" version="1.1" xmlns="http://www.w3.org/2000/svg" p-id="19143" xmlns:xlink="http://www.w3.org/1999/xlink" width="200" height="200"><path d="M974.376 154.192a16.04 16.04 0 0 1 19.26 20.62l-227.748 678.376a25.14 25.14 0 0 1-38.448 12.46l-224.36-160.26-186.176 143.716a26.4 26.4 0 0 1-42.52-20.548l-3.304-251.168-227.144-129.344a28.52 28.52 0 0 1 6.9-52.372l923.54-241.48z" fill="#00AAFF" p-id="19144"></path><path d="M271.08 577.388l-227.144-129.344a28.52 28.52 0 0 1 6.9-52.372l923.54-241.48a16.024 16.024 0 0 1 12.62 1.956L271.08 577.388z" fill="#00D9FF" p-id="19145"></path><path d="M986.996 156.148a16.052 16.052 0 0 1 6.64 18.664l-227.748 678.376a25.14 25.14 0 0 1-35.368 14.34l-95.636-67.992-131.804-94.148-0.296 0.228-7.392-5.252a33.416 33.416 0 0 1-4.204-50.94L986.996 156.148z" fill="#00D9FF" p-id="19146"></path></svg>