<?xml version="1.0" standalone="no"?>
<!DOCTYPE svg PUBLIC "-//W3C//DTD SVG 20010904//EN"
 "http://www.w3.org/TR/2001/REC-SVG-20010904/DTD/svg10.dtd">
<svg version="1.0" xmlns="http://www.w3.org/2000/svg"
 width="700.000000pt" height="700.000000pt" viewBox="0 0 700.000000 700.000000"
 preserveAspectRatio="xMidYMid meet">
<metadata>
Created by potrace 1.14, written by Peter Selinger 2001-2017
</metadata>
<g transform="translate(0.000000,700.000000) scale(0.100000,-0.100000)"
fill="#000000" stroke="none">
<path d="M6645 5945 c-64 -19 -91 -26 -1105 -290 -74 -19 -151 -40 -170 -45
-48 -13 -222 -58 -785 -205 -264 -68 -520 -136 -570 -149 -49 -13 -205 -54
-345 -90 -140 -36 -289 -75 -330 -86 -41 -11 -187 -50 -325 -85 -137 -36 -326
-86 -420 -110 -93 -25 -291 -77 -440 -115 -304 -80 -430 -113 -625 -164 -74
-19 -169 -44 -210 -55 -41 -11 -284 -74 -540 -141 -510 -133 -513 -134 -558
-221 -31 -59 -25 -135 15 -193 32 -45 -32 -7 948 -564 363 -206 662 -377 664
-379 3 -2 6 -81 7 -176 3 -330 15 -1253 18 -1418 3 -150 6 -171 25 -206 33
-57 83 -88 150 -90 67 -2 86 8 197 95 47 37 99 76 114 87 16 11 91 68 167 128
76 59 158 123 183 142 25 19 197 152 382 295 185 143 341 260 346 260 7 0 793
-556 1037 -734 11 -8 101 -72 200 -142 99 -70 207 -147 240 -172 80 -60 119
-75 177 -70 50 5 108 41 129 80 10 18 224 654 719 2128 71 212 264 788 430
1280 371 1103 418 1247 426 1286 7 36 -15 85 -48 108 -20 14 -74 20 -103 11z"/>
</g>
</svg>
